PathFileType	4	(X/Y/Z)	output.trc
DataRate	CameraRate	NumFrames	NumMarkers	Units	OrigDataRate	OrigDataStartFrame	OrigNumFrames
100	100	13	23	m	100	2244	5983
Frame#	Time	C7			T8			EL			EM			US			RS			AA			Fore_Clus_1			Fore_Clus_2			Fore_Clus_3			Fore_Clus_4			Hum_Clus_1			Hum_Clus_2			Hum_Clus_3			Hum_Clus_4			Thor_Clus_1			Thor_Clus_2			Thor_Clus_3			Thor_Clus_4			IJ			PX			GH			Thor_Clus_5		
		X1	Y1	Z1	X2	Y2	Z2	X3	Y3	Z3	X4	Y4	Z4	X5	Y5	Z5	X6	Y6	Z6	X7	Y7	Z7	X8	Y8	Z8	X9	Y9	Z9	X10	Y10	Z10	X11	Y11	Z11	X12	Y12	Z12	X13	Y13	Z13	X14	Y14	Z14	X15	Y15	Z15	X16	Y16	Z16	X17	Y17	Z17	X18	Y18	Z18	X19	Y19	Z19	X20	Y20	Z20	X21	Y21	Z21	X22	Y22	Z22	X23	Y23	Z23
2243	22.430000	-0.038913	1.584965	-0.053332	-0.061585	1.350956	-0.113936	-0.223112	1.176938	0.128843	-0.184346	1.162261	0.076287	-0.061064	1.124689	0.330212	-0.014167	1.141398	0.303036	-0.201789	1.502416	0.074051	-0.091483	1.171542	0.305071	-0.056255	1.162201	0.345657	-0.035200	1.170825	0.329413	-0.057465	1.185618	0.278458	-0.219867	1.289716	0.167534	-0.253305	1.289633	0.117347	-0.257457	1.352287	0.107415	-0.218422	1.361861	0.150515	0.085727	1.446184	0.082241	0.040437	1.391489	0.127430	0.046104	1.443145	0.102106	0.097532	1.395647	0.098306	0.020436	1.486916	0.040295	0.046006	1.303345	0.084786	-0.160059	1.478248	0.065711	0.035084	1.413730	0.120111
2244	22.440000	-0.038852	1.584950	-0.053457	-0.061541	1.350920	-0.113976	-0.223354	1.177106	0.129077	-0.184611	1.162324	0.076534	-0.061247	1.124617	0.330285	-0.014240	1.140765	0.302959	-0.201738	1.502460	0.073953	-0.091205	1.171646	0.304941	-0.055960	1.162027	0.345489	-0.034872	1.170487	0.329174	-0.057011	1.185259	0.278143	-0.219926	1.289923	0.167659	-0.253447	1.289828	0.117516	-0.257533	1.352486	0.107511	-0.218460	1.362031	0.150544	0.085762	1.446213	0.082185	0.040467	1.391543	0.127385	0.046135	1.443173	0.102043	0.097565	1.395692	0.098257	0.020487	1.486931	0.040207	0.046042	1.303374	0.084767	-0.160030	1.478274	0.065541	0.035141	1.413781	0.120049
2245	22.450000	-0.038787	1.584929	-0.053594	-0.061488	1.350876	-0.114018	-0.223591	1.177269	0.129283	-0.184857	1.162387	0.076762	-0.061427	1.124566	0.330345	-0.014323	1.140174	0.302874	-0.201686	1.502503	0.073839	-0.090963	1.171764	0.304808	-0.055729	1.161971	0.345337	-0.034570	1.170212	0.328944	-0.056711	1.184987	0.277886	-0.220018	1.290115	0.167768	-0.253558	1.289981	0.117669	-0.257622	1.352659	0.107589	-0.218484	1.362198	0.150570	0.085811	1.446251	0.082106	0.040537	1.391596	0.127348	0.046169	1.443211	0.101996	0.097612	1.395723	0.098195	0.020540	1.486944	0.040114	0.046078	1.303404	0.084751	-0.160004	1.478302	0.065369	0.035174	1.413816	0.120002
2246	22.460000	-0.038719	1.584902	-0.053740	-0.061430	1.350824	-0.114062	-0.223823	1.177428	0.129466	-0.185086	1.162452	0.076973	-0.061598	1.124538	0.330393	-0.014408	1.139631	0.302781	-0.201636	1.502544	0.073714	-0.090765	1.171881	0.304688	-0.055579	1.161948	0.345229	-0.034336	1.169968	0.328760	-0.056450	1.184760	0.277675	-0.220111	1.290290	0.167846	-0.253690	1.290133	0.117795	-0.257690	1.352793	0.107652	-0.218530	1.362348	0.150583	0.085832	1.446197	0.082093	0.040592	1.391623	0.127295	0.046264	1.443195	0.101840	0.097661	1.395742	0.098155	0.020592	1.486956	0.040017	0.046115	1.303433	0.084738	-0.159985	1.478333	0.065199	0.035235	1.413861	0.119948
2247	22.470000	-0.038646	1.584870	-0.053899	-0.061363	1.350763	-0.114110	-0.224051	1.177584	0.129631	-0.185303	1.162515	0.077172	-0.061756	1.124528	0.330429	-0.014494	1.139130	0.302677	-0.201586	1.502583	0.073573	-0.090607	1.172010	0.304609	-0.055484	1.161933	0.345119	-0.034180	1.169766	0.328620	-0.056238	1.184538	0.277514	-0.220211	1.290469	0.167906	-0.253802	1.290290	0.117854	-0.257755	1.352924	0.107679	-0.218567	1.362496	0.150579	0.085897	1.446224	0.082014	0.040657	1.391660	0.127264	0.046271	1.443271	0.101889	0.097708	1.395775	0.098099	0.020646	1.486965	0.039915	0.046151	1.303463	0.084729	-0.159967	1.478364	0.065026	0.035304	1.413887	0.119882
2248	22.480000	-0.038571	1.584831	-0.054066	-0.061291	1.350694	-0.114158	-0.224273	1.177736	0.129782	-0.185509	1.162579	0.077362	-0.061897	1.124536	0.330451	-0.014574	1.138674	0.302563	-0.201538	1.502621	0.073421	-0.090520	1.172099	0.304562	-0.055431	1.161910	0.345043	-0.034079	1.169582	0.328508	-0.056151	1.184343	0.277388	-0.220323	1.290615	0.167924	-0.253927	1.290442	0.117902	-0.257830	1.353044	0.107670	-0.218634	1.362620	0.150549	0.085945	1.446215	0.081944	0.040714	1.391681	0.127216	0.046350	1.443257	0.101757	0.097772	1.395792	0.098040	0.020699	1.486972	0.039809	0.046186	1.303492	0.084724	-0.159952	1.478395	0.064853	0.035335	1.413879	0.119877
2249	22.490000	-0.038495	1.584787	-0.054241	-0.061216	1.350618	-0.114207	-0.224492	1.177884	0.129925	-0.185708	1.162640	0.077545	-0.062018	1.124561	0.330460	-0.014646	1.138263	0.302437	-0.201491	1.502657	0.073260	-0.090445	1.172206	0.304531	-0.055359	1.161885	0.344971	-0.033913	1.169321	0.328433	-0.056040	1.184144	0.277267	-0.220441	1.290768	0.167919	-0.254051	1.290585	0.117915	-0.257906	1.353153	0.107615	-0.218688	1.362764	0.150491	0.086000	1.446241	0.081870	0.040764	1.391709	0.127150	0.046422	1.443254	0.101642	0.097823	1.395811	0.097997	0.020751	1.486978	0.039700	0.046220	1.303522	0.084722	-0.159937	1.478425	0.064679	0.035472	1.414127	0.119535
2250	22.500000	-0.038417	1.584740	-0.054423	-0.061136	1.350537	-0.114257	-0.224707	1.178029	0.130065	-0.185903	1.162698	0.077724	-0.062117	1.124601	0.330454	-0.014706	1.137896	0.302301	-0.201445	1.502692	0.073089	-0.090290	1.172342	0.304495	-0.055247	1.161891	0.344898	-0.033673	1.169101	0.328357	-0.055916	1.183986	0.277105	-0.220583	1.290925	0.167884	-0.254168	1.290731	0.117885	-0.257995	1.353264	0.107522	-0.218808	1.362914	0.150397	0.086037	1.446256	0.081810	0.040786	1.391735	0.127117	0.046473	1.443287	0.101566	0.097855	1.395834	0.097941	0.020804	1.486982	0.039588	0.046253	1.303551	0.084723	-0.159921	1.478451	0.064504	0.035535	1.414251	0.119381
2251	22.510000	-0.038342	1.584689	-0.054607	-0.061057	1.350451	-0.114306	-0.224919	1.178171	0.130202	-0.186095	1.162755	0.077901	-0.062189	1.124657	0.330435	-0.014749	1.137575	0.302157	-0.201402	1.502725	0.072918	-0.090138	1.172514	0.304424	-0.055114	1.161922	0.344746	-0.034629	1.168949	0.327747	-0.055724	1.183849	0.276934	-0.220754	1.291099	0.167839	-0.254295	1.290859	0.117818	-0.258085	1.353392	0.107369	-0.218937	1.363078	0.150274	0.086054	1.446280	0.081743	0.040802	1.391773	0.127066	0.046493	1.443325	0.101510	0.097877	1.395859	0.097897	0.020854	1.486985	0.039476	0.046285	1.303580	0.084726	-0.159903	1.478476	0.064331	0.035566	1.414280	0.119338
2252	22.520000	-0.038265	1.584636	-0.054793	-0.060978	1.350363	-0.114356	-0.225128	1.178310	0.130341	-0.186287	1.162808	0.078078	-0.062237	1.124725	0.330401	-0.014776	1.137298	0.302002	-0.201360	1.502757	0.072742	-0.089939	1.172683	0.304321	-0.054911	1.161976	0.344593	-0.034339	1.168887	0.327596	-0.055475	1.183751	0.276711	-0.220956	1.291287	0.167795	-0.254477	1.290998	0.117738	-0.258201	1.353522	0.107208	-0.219087	1.363250	0.150146	0.086095	1.446314	0.081667	0.040822	1.391819	0.127021	0.046519	1.443347	0.101428	0.097908	1.395896	0.097853	0.020903	1.486986	0.039364	0.046314	1.303607	0.084731	-0.159880	1.478496	0.064158	0.035586	1.414313	0.119284
2253	22.530000	-0.038192	1.584583	-0.054975	-0.060902	1.350276	-0.114403	-0.225334	1.178446	0.130482	-0.186478	1.162859	0.078255	-0.062257	1.124808	0.330354	-0.014781	1.137066	0.301843	-0.201320	1.502788	0.072572	-0.089672	1.172946	0.304172	-0.054618	1.162145	0.344405	-0.034177	1.168943	0.327281	-0.055145	1.183751	0.276485	-0.221186	1.291491	0.167810	-0.254612	1.291135	0.117684	-0.258313	1.353682	0.107038	-0.219235	1.363444	0.150041	0.086097	1.446339	0.081601	0.040837	1.391874	0.126980	0.046557	1.443391	0.101351	0.097932	1.395941	0.097821	0.020950	1.486987	0.039253	0.046342	1.303634	0.084736	-0.159851	1.478513	0.063988	0.035596	1.414387	0.119240
2254	22.540000	-0.038121	1.584531	-0.055153	-0.060830	1.350191	-0.114450	-0.225537	1.178581	0.130626	-0.186671	1.162907	0.078434	-0.062251	1.124903	0.330293	-0.014764	1.136877	0.301679	-0.201281	1.502818	0.072406	-0.089406	1.173263	0.303989	-0.054297	1.162398	0.344190	-0.032965	1.168908	0.327294	-0.054855	1.183823	0.276262	-0.221410	1.291698	0.167822	-0.254767	1.291275	0.117638	-0.258406	1.353839	0.106894	-0.219367	1.363626	0.149942	0.086121	1.446381	0.081555	0.040855	1.391914	0.126934	0.046574	1.443421	0.101284	0.097957	1.395980	0.097788	0.020995	1.486987	0.039145	0.046369	1.303659	0.084740	-0.159816	1.478526	0.063821	0.035601	1.414471	0.119200
2255	22.550000	-0.038052	1.584482	-0.055324	-0.060763	1.350110	-0.114496	-0.225736	1.178713	0.130775	-0.186864	1.162952	0.078613	-0.062221	1.125007	0.330219	-0.014728	1.136729	0.301511	-0.201243	1.502849	0.072247	-0.089094	1.173644	0.303802	-0.053929	1.162816	0.344012	-0.032422	1.169038	0.327190	-0.054617	1.183938	0.276052	-0.221636	1.291898	0.167840	-0.254921	1.291429	0.117608	-0.258493	1.353983	0.106778	-0.219500	1.363816	0.149855	0.086158	1.446419	0.081482	0.040882	1.391961	0.126903	0.046626	1.443447	0.101212	0.097985	1.396015	0.097758	0.021039	1.486986	0.039040	0.046393	1.303682	0.084741	-0.159773	1.478535	0.063656	0.035632	1.414501	0.119155
